<svg width="30" height="30" viewBox="0 0 30 30" fill="none" xmlns="http://www.w3.org/2000/svg">
<path d="M7.5 12.5V10C7.5 5.8625 8.75 2.5 15 2.5C21.25 2.5 22.5 5.8625 22.5 10V12.5" stroke="#292D32" stroke-width="1.5" stroke-linecap="round" stroke-linejoin="round"/>
<path d="M11.875 20C11.875 21.725 13.275 23.125 15 23.125C16.725 23.125 18.125 21.725 18.125 20C18.125 18.275 16.725 16.875 15 16.875" stroke="#292D32" stroke-width="1.5" stroke-linecap="round" stroke-linejoin="round"/>
<path d="M27.5 21.25V18.75C27.5 13.75 26.25 12.5 21.25 12.5H8.75C3.75 12.5 2.5 13.75 2.5 18.75V21.25C2.5 26.25 3.75 27.5 8.75 27.5H21.25C23.45 27.5 24.925 27.2625 25.8875 26.5625" stroke="#292D32" stroke-width="1.5" stroke-linecap="round" stroke-linejoin="round"/>
</svg>
